<svg id="Ben_Fong_Bus" data-name="Ben Fong Bus" xmlns="http://www.w3.org/2000/svg" viewBox="0 0 600 400"><defs><style>.cls-1{fill:#17065b;}.cls-2{isolation:isolate;}.cls-3{fill:#099cff;stroke:#099cff;}.cls-3,.cls-4,.cls-5{stroke-miterlimit:10;}.cls-3,.cls-4{stroke-width:2px;}.cls-4,.cls-5{fill:#fff;stroke:#fff;}.cls-5{stroke-width:5px;}</style></defs><path id="Bus" class="cls-1" d="M432,284,173.6,353.21V318.28a2.34,2.34,0,0,0-.82-1.9l-23-18.52a2.2,2.2,0,0,0-2-.35l-32.58,8.73a3.74,3.74,0,0,0-2,1.42l-23,30.86a4,4,0,0,0-.82,2.35v34.92l-5.21,1.39L16.31,379.1a3.55,3.55,0,0,1-2-.52,2,2,0,0,1-.82-1.74V357.57a4.07,4.07,0,0,1,2.81-3.76l2.81-.75V169.42a8.13,8.13,0,0,1,5.62-7.53l5.61-1.51V142.92a4.09,4.09,0,0,1,2.81-3.76l90.55-24.26h.15c7.71-.31,75.7-3.08,89.43-3.52L569.65,15.88c3.1-.83,5.61,1.19,5.61,4.52l5.62,102.81V223l2.81-.75a2.16,2.16,0,0,1,2.81,2.26v15.05a4.06,4.06,0,0,1-2.81,3.76l-67.41,18.07V226.47a2.38,2.38,0,0,0-.82-1.91l-23-18.52a2.25,2.25,0,0,0-2-.35l-32.57,8.73a3.77,3.77,0,0,0-2,1.42l-23,30.85A4,4,0,0,0,432,249Z"/><path id="Back_Wheel" data-name="Back Wheel" class="cls-1" d="M131.38,383.18a29.57,29.57,0,0,1-13.12.68,24.59,24.59,0,0,1-5.72-1.8,23.68,23.68,0,0,1-9.11-7.32,26.25,26.25,0,0,1-3.11-5.3,33.14,33.14,0,0,1-2.65-13.35,44.24,44.24,0,0,1,2.65-14.77,50.27,50.27,0,0,1,3.11-7,52.22,52.22,0,0,1,9.11-12.2,48.49,48.49,0,0,1,5.72-4.87,40.36,40.36,0,0,1,13.12-6.35,29.57,29.57,0,0,1,13.12-.68,25.31,25.31,0,0,1,5.73,1.8,23.75,23.75,0,0,1,5,3.07,24.06,24.06,0,0,1,4.12,4.25,26.25,26.25,0,0,1,3.11,5.3A33,33,0,0,1,165.09,338a44.09,44.09,0,0,1-2.65,14.78A52.22,52.22,0,0,1,150.23,372a48.58,48.58,0,0,1-5.73,4.87A40.36,40.36,0,0,1,131.38,383.18Zm0-51.18a16.76,16.76,0,0,0-5.47,2.65,21,21,0,0,0-4.46,4.42,21.47,21.47,0,0,0-3,5.59,18.22,18.22,0,0,0-1.1,6.16,13.63,13.63,0,0,0,1.1,5.56,10.54,10.54,0,0,0,3,4,10,10,0,0,0,4.46,2,12.47,12.47,0,0,0,5.47-.28,16.76,16.76,0,0,0,5.47-2.65,20.53,20.53,0,0,0,4.46-4.42,21.47,21.47,0,0,0,3-5.59,18.22,18.22,0,0,0,1.1-6.16,13.63,13.63,0,0,0-1.1-5.56,10.44,10.44,0,0,0-3-4,10,10,0,0,0-4.46-2A12.47,12.47,0,0,0,131.38,332Z"/><path id="Front_Wheel" data-name="Front Wheel" class="cls-1" d="M474.06,291.36a29.57,29.57,0,0,1-13.12.68,24.67,24.67,0,0,1-5.73-1.8,24.08,24.08,0,0,1-5-3.07,24.36,24.36,0,0,1-4.11-4.25,26.25,26.25,0,0,1-3.11-5.3,32.8,32.8,0,0,1-2.65-13.35A43.74,43.74,0,0,1,443,249.5a50.27,50.27,0,0,1,3.11-7,51.81,51.81,0,0,1,9.1-12.2,48.58,48.58,0,0,1,5.73-4.87,40.36,40.36,0,0,1,13.12-6.35,29.57,29.57,0,0,1,13.12-.68,25.07,25.07,0,0,1,5.72,1.8,23.68,23.68,0,0,1,9.11,7.32,26.69,26.69,0,0,1,3.1,5.3,32.8,32.8,0,0,1,2.65,13.35A43.84,43.84,0,0,1,505.11,261a51.16,51.16,0,0,1-7.22,13.41,51.82,51.82,0,0,1-5,5.75,48.49,48.49,0,0,1-5.72,4.87A40.46,40.46,0,0,1,474.06,291.36Zm0-51.18a16.76,16.76,0,0,0-5.47,2.65,20.76,20.76,0,0,0-4.46,4.42,21.18,21.18,0,0,0-3,5.59A18.24,18.24,0,0,0,460,259a13.63,13.63,0,0,0,1.11,5.56,10.34,10.34,0,0,0,3,4,10,10,0,0,0,4.46,2,12.32,12.32,0,0,0,5.47-.28,16.81,16.81,0,0,0,5.46-2.65,20.57,20.57,0,0,0,4.47-4.42,21.77,21.77,0,0,0,3-5.59,18.47,18.47,0,0,0,1.1-6.16,13.79,13.79,0,0,0-1.1-5.56,10.54,10.54,0,0,0-3-4,10,10,0,0,0-4.47-2A12.42,12.42,0,0,0,474.06,240.18Z"/><g id="AC_TRANSIT_WARD_1" data-name="AC TRANSIT WARD 1" class="cls-2"><g class="cls-2"><path class="cls-3" d="M65.9,297.29l-13.14,3.52L50.25,308l-6.72,1.8,12.62-33.72,6.47-1.74,12.66,27-6.87,1.84Zm-2.06-4.78-4.49-10.42-4.49,12.82Z"/><path class="cls-3" d="M81,284.56A20.93,20.93,0,0,1,96.4,264.75c4.89-1.31,9-.5,11.64,2.26l-4.2,5.29a7,7,0,0,0-7.12-1.65,12.48,12.48,0,0,0-9.06,12.14c0,5.72,3.76,8.7,9.06,7.28a12.35,12.35,0,0,0,7.12-5.51l4.2,3a19.62,19.62,0,0,1-11.68,8.55C87.58,298.5,81,293.71,81,284.56Z"/><path class="cls-3" d="M139.71,259.39l-9.05,2.43v-5.73l24.67-6.61v5.73l-9.06,2.42v24.62L139.71,284Z"/><path class="cls-3" d="M181.86,272.72l-5.46-7-.32.08-5.71,1.53v8.46l-6.55,1.75V247.21l12.26-3.29c7.56-2,12.29.91,12.29,7.72a13.53,13.53,0,0,1-5.82,11.14l6.35,8.05Zm-6.15-23-5.34,1.43v10.58l5.34-1.43c4-1.07,6-3.61,6-6.9S179.72,248.67,175.71,249.74Z"/><path class="cls-3" d="M217.17,256.75,204,260.28l-2.51,7.17-6.72,1.8,12.62-33.73,6.47-1.73,12.66,27-6.87,1.84ZM215.11,252l-4.49-10.41-4.49,12.82Z"/><path class="cls-3" d="M260.45,221.32v30.34l-5.38,1.44L241,238.46v18.42l-6.48,1.74V228.27l5.42-1.45L254,241.47V223.05Z"/><path class="cls-3" d="M269.92,246.13l2.22-5.88a13.66,13.66,0,0,0,9.34.66c3.89-1,5.46-2.85,5.46-4.71,0-5.68-16.46,2.63-16.46-8.64,0-5.16,3.88-10.49,11.93-12.65,3.56-.95,7.2-1,9.83.05l-2,5.88a13.35,13.35,0,0,0-7.85-.28c-3.88,1-5.38,3-5.38,4.91,0,5.59,16.46-2.68,16.46,8.46,0,5.07-3.92,10.46-12,12.63C277,247.76,272.42,247.54,269.92,246.13Z"/><path class="cls-3" d="M302.92,209.94l6.55-1.76v30.35l-6.55,1.75Z"/><path class="cls-3" d="M327,209.2,318,211.63V205.9l24.68-6.61V205l-9.06,2.42v24.63L327,233.82Z"/></g><g class="cls-2"><path class="cls-4" d="M410.34,181.15,401.08,214l-7,1.88L387.81,197l-6.43,22.27-7,1.87-9.3-27.85,6.8-1.82,6.39,19.61L384.94,188l6.07-1.63,6.47,19.77,6.59-23.27Z"/><path class="cls-4" d="M436.67,197.94l-13.14,3.52L421,208.63l-6.71,1.8,12.62-33.72L433.4,175l12.66,27-6.88,1.84Zm-2.06-4.78-4.49-10.41-4.49,12.81Z"/><path class="cls-4" d="M472,195l-5.46-7-.32.09-5.7,1.52v8.46L454,199.8V169.46l12.25-3.29c7.56-2,12.3.91,12.3,7.72A13.54,13.54,0,0,1,472.71,185l6.35,8.05Zm-6.14-23-5.34,1.43V184l5.34-1.43c4-1.07,6-3.61,6-6.9S469.88,170.92,465.88,172Z"/><path class="cls-4" d="M488.69,160.16l12.86-3.45c9.26-2.48,15.61,1.8,15.61,11s-6.35,16.88-15.61,19.36l-12.86,3.44Zm12.54,21.22a12.07,12.07,0,0,0,9.3-11.9c0-5.81-3.68-8.42-9.3-6.91l-6,1.6V183Z"/><path class="cls-4" d="M552.63,143v30.35l-6.55,1.75v-24.7l-5.66,1.51V146.3Z"/></g></g><g id="BEN_FONG" data-name="BEN FONG" class="cls-2"><g class="cls-2"><path class="cls-5" d="M105,227.64c0,12.24-9.06,21.75-26.43,26.4L44.38,263.2V192.39l32.27-8.65c16.52-4.42,25,.69,25,11.71a23.35,23.35,0,0,1-8.77,17.93C100.25,213.94,105,218.74,105,227.64Zm-45.4-27v16.69l15.2-4.07c7.45-2,11.51-5.92,11.51-11.48s-4.06-7.21-11.51-5.21Zm30,29.38c0-6-4.24-7.66-12.17-5.53l-17.84,4.78v17.5L77.41,242C85.34,239.88,89.58,236.11,89.58,230Z"/><path class="cls-5" d="M167.73,217v13.15l-51.15,13.7v-70.8l49.92-13.38v13.15l-34.73,9.3V197.5l30.67-8.22V202l-30.67,8.21v16.39Z"/><path class="cls-5" d="M240.49,139.84v70.81L227.94,214,195,179.85v43l-15.1,4v-70.8l12.65-3.39,32.84,34.19v-43Z"/><path class="cls-5" d="M298.16,137.54v18.71l30.57-8.19v13.15l-30.57,8.19v25.8l-15.29,4.09v-70.8l49.92-13.38v13.15Z"/><path class="cls-5" d="M338.36,149c0-21,15.29-40.71,36.15-46.3s36.14,5.79,36.14,26.93-15.38,40.74-36.14,46.3S338.36,170.06,338.36,149Zm56.81-15.22c0-13.45-8.87-20.28-20.66-17.12s-20.67,14.74-20.67,28.2,8.87,20.28,20.67,17.11S395.17,147.25,395.17,133.8Z"/><path class="cls-5" d="M482.76,74.93v70.8L470.2,149.1l-32.93-34.17v43L422.17,162V91.16l12.64-3.39L467.66,122V79Z"/><path class="cls-5" d="M543.06,93.06l14-3.74V118a58.54,58.54,0,0,1-26.71,16.16c-20.76,5.57-36.05-5.61-36.05-26.95s15.29-40.72,36.34-46.36c11.6-3.11,21.23-1.44,27.65,4.83l-9.82,12.34c-4.81-4.17-10.38-5.21-17.08-3.41a29.2,29.2,0,0,0-21.61,28.45c0,13.25,8.78,20.3,21.42,16.92a29.85,29.85,0,0,0,11.89-6.23Z"/></g></g></svg>